# xmcd
#
# Track frame offsets:
#	150
#	16790
#	35283
#	48415
#	60743
#	79843
#	95880
#	112818
#	128470
#	142333
#	156810
#	169772
#
# Disc length: 2541 seconds
#
# Revision: 0
# Processed by: cddbd v1.5.2PL0 Copyright (c) Steve Scherf et al.
# Submitted via: EasyCDDAExtractor 2010.4.0.0
#
DISCID=9709eb0c
DTITLE=Cedric Watson et Bijou Créole - L'Ésprit Créole
DYEAR=2009
DGENRE=blues
TTITLE0=Bijou Créole
TTITLE1=Le sud de la Louisiane
TTITLE2=Mais là
TTITLE3=J'suis parti au Texas
TTITLE4=Zydeco paradise
TTITLE5=Lafayette lala
TTITLE6=J'suis gone à la Blue Moon
TTITLE7=C'est la vie
TTITLE8=Grand Marais
TTITLE9=Gardes là-bas
TTITLE10=Chere 'tit coeur
TTITLE11=Bluerunner
EXTD=
EXTT0=
EXTT1=
EXTT2=
EXTT3=
EXTT4=
EXTT5=
EXTT6=
EXTT7=
EXTT8=
EXTT9=
EXTT10=
EXTT11=
PLAYORDER=
